<mxfile host="app.diagrams.net" modified="2024-05-29T15:20:34.142Z" agent="Mozilla/5.0 (Macintosh; Intel Mac OS X 10_15_7) AppleWebKit/537.36 (KHTML, like Gecko) Chrome/125.0.0.0 Safari/537.36" etag="uW2ZM34Yxm2-_o_t3QX8" version="24.4.9" type="device">
  <diagram name="Page-1" id="HiUwMxksp9ol36oj9bhu">
    <mxGraphModel dx="-307" dy="3105" grid="1" gridSize="10" guides="1" tooltips="1" connect="1" arrows="1" fold="1" page="1" pageScale="1" pageWidth="827" pageHeight="1169" math="0" shadow="0">
      <root>
        <mxCell id="0" />
        <mxCell id="1" parent="0" />
        <mxCell id="_oHKUjXF2xqVWYaTDJfR-1" style="edgeStyle=orthogonalEdgeStyle;rounded=0;orthogonalLoop=1;jettySize=auto;html=1;endArrow=none;endFill=0;startArrow=classic;startFill=1;startSize=16;" parent="1" source="_oHKUjXF2xqVWYaTDJfR-3" target="_oHKUjXF2xqVWYaTDJfR-13" edge="1">
          <mxGeometry relative="1" as="geometry" />
        </mxCell>
        <mxCell id="_oHKUjXF2xqVWYaTDJfR-2" style="edgeStyle=orthogonalEdgeStyle;rounded=0;orthogonalLoop=1;jettySize=auto;html=1;endArrow=none;endFill=0;startArrow=classicThin;startFill=1;targetPerimeterSpacing=4;sourcePerimeterSpacing=0;startSize=16;" parent="1" source="_oHKUjXF2xqVWYaTDJfR-3" target="_oHKUjXF2xqVWYaTDJfR-91" edge="1">
          <mxGeometry relative="1" as="geometry" />
        </mxCell>
        <mxCell id="_oHKUjXF2xqVWYaTDJfR-3" value="Country" style="swimlane;fontStyle=1;align=center;verticalAlign=top;childLayout=stackLayout;horizontal=1;startSize=20;horizontalStack=0;resizeParent=1;resizeParentMax=0;resizeLast=0;collapsible=1;marginBottom=0;whiteSpace=wrap;html=1;" parent="1" vertex="1">
          <mxGeometry x="947.5" y="-1432" width="180" height="98" as="geometry" />
        </mxCell>
        <mxCell id="_oHKUjXF2xqVWYaTDJfR-4" value="&lt;u&gt;id_country&amp;nbsp; INT&amp;nbsp; &amp;nbsp; &amp;nbsp; &amp;nbsp; &amp;nbsp; &amp;nbsp;&amp;lt;pk&amp;gt;&lt;/u&gt;" style="text;strokeColor=none;fillColor=none;align=left;verticalAlign=top;spacingLeft=4;spacingRight=4;overflow=hidden;rotatable=0;points=[[0,0.5],[1,0.5]];portConstraint=eastwest;whiteSpace=wrap;html=1;" parent="_oHKUjXF2xqVWYaTDJfR-3" vertex="1">
          <mxGeometry y="20" width="180" height="26" as="geometry" />
        </mxCell>
        <mxCell id="_oHKUjXF2xqVWYaTDJfR-5" value="&lt;span style=&quot;white-space-collapse: preserve; background-color: rgb(255, 255, 255);&quot;&gt;&lt;font style=&quot;font-size: 12px;&quot; face=&quot;Helvetica&quot;&gt;country_name VARCHAR(50)&lt;/font&gt;&lt;/span&gt;" style="text;strokeColor=none;fillColor=none;align=left;verticalAlign=top;spacingLeft=4;spacingRight=4;overflow=hidden;rotatable=0;points=[[0,0.5],[1,0.5]];portConstraint=eastwest;whiteSpace=wrap;html=1;" parent="_oHKUjXF2xqVWYaTDJfR-3" vertex="1">
          <mxGeometry y="46" width="180" height="26" as="geometry" />
        </mxCell>
        <mxCell id="_oHKUjXF2xqVWYaTDJfR-6" value="&lt;span style=&quot;white-space-collapse: preserve; background-color: rgb(255, 255, 255);&quot;&gt;&lt;font face=&quot;Helvetica&quot; style=&quot;font-size: 12px;&quot;&gt;country_code : CHAR(3)&lt;/font&gt;&lt;/span&gt;" style="text;strokeColor=none;fillColor=none;align=left;verticalAlign=top;spacingLeft=4;spacingRight=4;overflow=hidden;rotatable=0;points=[[0,0.5],[1,0.5]];portConstraint=eastwest;whiteSpace=wrap;html=1;" parent="_oHKUjXF2xqVWYaTDJfR-3" vertex="1">
          <mxGeometry y="72" width="180" height="26" as="geometry" />
        </mxCell>
        <mxCell id="_oHKUjXF2xqVWYaTDJfR-7" style="edgeStyle=orthogonalEdgeStyle;rounded=0;orthogonalLoop=1;jettySize=auto;html=1;endArrow=none;endFill=0;startArrow=classic;startFill=1;endSize=16;startSize=16;" parent="1" source="_oHKUjXF2xqVWYaTDJfR-8" target="_oHKUjXF2xqVWYaTDJfR-29" edge="1">
          <mxGeometry relative="1" as="geometry" />
        </mxCell>
        <mxCell id="_oHKUjXF2xqVWYaTDJfR-8" value="Customer" style="swimlane;fontStyle=1;align=center;verticalAlign=top;childLayout=stackLayout;horizontal=1;startSize=26;horizontalStack=0;resizeParent=1;resizeParentMax=0;resizeLast=0;collapsible=1;marginBottom=0;whiteSpace=wrap;html=1;" parent="1" vertex="1">
          <mxGeometry x="1350" y="-1438" width="222" height="130" as="geometry" />
        </mxCell>
        <mxCell id="_oHKUjXF2xqVWYaTDJfR-9" value="&lt;span style=&quot;white-space-collapse: preserve; background-color: rgb(255, 255, 255);&quot;&gt;&lt;u style=&quot;&quot;&gt;&lt;font style=&quot;font-size: 12px;&quot; face=&quot;Helvetica&quot;&gt;id_customer       INT    &amp;lt;pk&amp;gt;&lt;/font&gt;&lt;/u&gt;&lt;/span&gt;" style="text;strokeColor=none;fillColor=none;align=left;verticalAlign=top;spacingLeft=4;spacingRight=4;overflow=hidden;rotatable=0;points=[[0,0.5],[1,0.5]];portConstraint=eastwest;whiteSpace=wrap;html=1;" parent="_oHKUjXF2xqVWYaTDJfR-8" vertex="1">
          <mxGeometry y="26" width="222" height="26" as="geometry" />
        </mxCell>
        <mxCell id="_oHKUjXF2xqVWYaTDJfR-10" value="&lt;span style=&quot;white-space-collapse: preserve; background-color: rgb(255, 255, 255);&quot;&gt;&lt;font face=&quot;Helvetica&quot; style=&quot;font-size: 12px;&quot;&gt;customer_name VARCHAR(50)&lt;/font&gt;&lt;/span&gt;" style="text;strokeColor=none;fillColor=none;align=left;verticalAlign=top;spacingLeft=4;spacingRight=4;overflow=hidden;rotatable=0;points=[[0,0.5],[1,0.5]];portConstraint=eastwest;whiteSpace=wrap;html=1;" parent="_oHKUjXF2xqVWYaTDJfR-8" vertex="1">
          <mxGeometry y="52" width="222" height="26" as="geometry" />
        </mxCell>
        <mxCell id="_oHKUjXF2xqVWYaTDJfR-11" value="&lt;span style=&quot;white-space-collapse: preserve; background-color: rgb(255, 255, 255);&quot;&gt;&lt;font face=&quot;Helvetica&quot; style=&quot;font-size: 12px;&quot;&gt;customer_address VARCHAR(255)&lt;/font&gt;&lt;/span&gt;" style="text;strokeColor=none;fillColor=none;align=left;verticalAlign=top;spacingLeft=4;spacingRight=4;overflow=hidden;rotatable=0;points=[[0,0.5],[1,0.5]];portConstraint=eastwest;whiteSpace=wrap;html=1;" parent="_oHKUjXF2xqVWYaTDJfR-8" vertex="1">
          <mxGeometry y="78" width="222" height="26" as="geometry" />
        </mxCell>
        <mxCell id="_oHKUjXF2xqVWYaTDJfR-12" value="&lt;span style=&quot;white-space-collapse: preserve;&quot;&gt;customer_country   INT                 &amp;lt;fk&amp;gt;&lt;/span&gt;" style="text;strokeColor=none;fillColor=none;align=left;verticalAlign=top;spacingLeft=4;spacingRight=4;overflow=hidden;rotatable=0;points=[[0,0.5],[1,0.5]];portConstraint=eastwest;whiteSpace=wrap;html=1;" parent="_oHKUjXF2xqVWYaTDJfR-8" vertex="1">
          <mxGeometry y="104" width="222" height="26" as="geometry" />
        </mxCell>
        <mxCell id="_oHKUjXF2xqVWYaTDJfR-13" value="Place" style="swimlane;fontStyle=1;align=center;verticalAlign=top;childLayout=stackLayout;horizontal=1;startSize=26;horizontalStack=0;resizeParent=1;resizeParentMax=0;resizeLast=0;collapsible=1;marginBottom=0;whiteSpace=wrap;html=1;" parent="1" vertex="1">
          <mxGeometry x="957.5" y="-1080" width="160" height="104" as="geometry" />
        </mxCell>
        <mxCell id="_oHKUjXF2xqVWYaTDJfR-14" value="&lt;font face=&quot;Helvetica&quot; style=&quot;font-size: 12px;&quot;&gt;&lt;span style=&quot;white-space-collapse: preserve; background-color: rgb(255, 255, 255);&quot;&gt;&lt;u style=&quot;&quot;&gt;id_place  &lt;span style=&quot;white-space: pre;&quot;&gt;&#x9;&lt;/span&gt;INT            &amp;lt;pk&amp;gt;&lt;/u&gt;&lt;/span&gt;&lt;/font&gt;" style="text;strokeColor=none;fillColor=none;align=left;verticalAlign=top;spacingLeft=4;spacingRight=4;overflow=hidden;rotatable=0;points=[[0,0.5],[1,0.5]];portConstraint=eastwest;whiteSpace=wrap;html=1;" parent="_oHKUjXF2xqVWYaTDJfR-13" vertex="1">
          <mxGeometry y="26" width="160" height="26" as="geometry" />
        </mxCell>
        <mxCell id="_oHKUjXF2xqVWYaTDJfR-15" value="&lt;span style=&quot;white-space-collapse: preserve; background-color: rgb(255, 255, 255);&quot;&gt;&lt;font style=&quot;font-size: 12px;&quot; face=&quot;Helvetica&quot;&gt;place_name VARCHAR(50)&lt;/font&gt;&lt;/span&gt;" style="text;strokeColor=none;fillColor=none;align=left;verticalAlign=top;spacingLeft=4;spacingRight=4;overflow=hidden;rotatable=0;points=[[0,0.5],[1,0.5]];portConstraint=eastwest;whiteSpace=wrap;html=1;" parent="_oHKUjXF2xqVWYaTDJfR-13" vertex="1">
          <mxGeometry y="52" width="160" height="26" as="geometry" />
        </mxCell>
        <mxCell id="_oHKUjXF2xqVWYaTDJfR-16" value="&lt;span style=&quot;white-space-collapse: preserve;&quot;&gt;place_country   INT      &lt;/span&gt;&lt;span style=&quot;background-color: initial; white-space-collapse: preserve;&quot;&gt;&amp;lt;fk&amp;gt;&lt;/span&gt;" style="text;strokeColor=none;fillColor=none;align=left;verticalAlign=top;spacingLeft=4;spacingRight=4;overflow=hidden;rotatable=0;points=[[0,0.5],[1,0.5]];portConstraint=eastwest;whiteSpace=wrap;html=1;" parent="_oHKUjXF2xqVWYaTDJfR-13" vertex="1">
          <mxGeometry y="78" width="160" height="26" as="geometry" />
        </mxCell>
        <mxCell id="_oHKUjXF2xqVWYaTDJfR-17" value="Incoterms" style="swimlane;fontStyle=1;align=center;verticalAlign=top;childLayout=stackLayout;horizontal=1;startSize=26;horizontalStack=0;resizeParent=1;resizeParentMax=0;resizeLast=0;collapsible=1;marginBottom=0;whiteSpace=wrap;html=1;" parent="1" vertex="1">
          <mxGeometry x="1590" y="-1277" width="230" height="104" as="geometry" />
        </mxCell>
        <mxCell id="_oHKUjXF2xqVWYaTDJfR-18" value="&lt;span style=&quot;white-space-collapse: preserve; background-color: rgb(255, 255, 255);&quot;&gt;&lt;u style=&quot;&quot;&gt;&lt;font style=&quot;font-size: 12px;&quot; face=&quot;Helvetica&quot;&gt;id_incoterms     INT    &amp;lt;pk&amp;gt;&lt;/font&gt;&lt;/u&gt;&lt;/span&gt;" style="text;strokeColor=none;fillColor=none;align=left;verticalAlign=top;spacingLeft=4;spacingRight=4;overflow=hidden;rotatable=0;points=[[0,0.5],[1,0.5]];portConstraint=eastwest;whiteSpace=wrap;html=1;" parent="_oHKUjXF2xqVWYaTDJfR-17" vertex="1">
          <mxGeometry y="26" width="230" height="26" as="geometry" />
        </mxCell>
        <mxCell id="_oHKUjXF2xqVWYaTDJfR-19" value="&lt;span style=&quot;white-space-collapse: preserve; background-color: rgb(255, 255, 255);&quot;&gt;&lt;font style=&quot;font-size: 12px;&quot; face=&quot;Helvetica&quot;&gt;incoterms_short_name CHAR(3)&lt;/font&gt;&lt;/span&gt;" style="text;strokeColor=none;fillColor=none;align=left;verticalAlign=top;spacingLeft=4;spacingRight=4;overflow=hidden;rotatable=0;points=[[0,0.5],[1,0.5]];portConstraint=eastwest;whiteSpace=wrap;html=1;" parent="_oHKUjXF2xqVWYaTDJfR-17" vertex="1">
          <mxGeometry y="52" width="230" height="26" as="geometry" />
        </mxCell>
        <mxCell id="_oHKUjXF2xqVWYaTDJfR-20" value="&lt;span style=&quot;white-space-collapse: preserve; background-color: rgb(255, 255, 255);&quot;&gt;&lt;font style=&quot;font-size: 12px;&quot; face=&quot;Helvetica&quot;&gt;incoterms_full_name VARCHAR(50)&lt;/font&gt;&lt;/span&gt;" style="text;strokeColor=none;fillColor=none;align=left;verticalAlign=top;spacingLeft=4;spacingRight=4;overflow=hidden;rotatable=0;points=[[0,0.5],[1,0.5]];portConstraint=eastwest;whiteSpace=wrap;html=1;" parent="_oHKUjXF2xqVWYaTDJfR-17" vertex="1">
          <mxGeometry y="78" width="230" height="26" as="geometry" />
        </mxCell>
        <mxCell id="_oHKUjXF2xqVWYaTDJfR-21" style="edgeStyle=orthogonalEdgeStyle;rounded=0;orthogonalLoop=1;jettySize=auto;html=1;endArrow=none;endFill=0;entryX=0.25;entryY=1;entryDx=0;entryDy=0;startArrow=classic;startFill=1;startSize=16;" parent="1" source="_oHKUjXF2xqVWYaTDJfR-25" target="_oHKUjXF2xqVWYaTDJfR-29" edge="1">
          <mxGeometry relative="1" as="geometry" />
        </mxCell>
        <mxCell id="_oHKUjXF2xqVWYaTDJfR-22" value="FK_SALE_CONTRACT_SALE_POINT" style="edgeLabel;html=1;align=center;verticalAlign=middle;resizable=0;points=[];" parent="_oHKUjXF2xqVWYaTDJfR-21" connectable="0" vertex="1">
          <mxGeometry x="0.0738" y="-1" relative="1" as="geometry">
            <mxPoint x="-18" y="-71" as="offset" />
          </mxGeometry>
        </mxCell>
        <mxCell id="_oHKUjXF2xqVWYaTDJfR-23" style="edgeStyle=orthogonalEdgeStyle;rounded=0;orthogonalLoop=1;jettySize=auto;html=1;entryX=0.501;entryY=1.028;entryDx=0;entryDy=0;endArrow=classic;endFill=1;startSize=16;endSize=16;entryPerimeter=0;" parent="1" source="_oHKUjXF2xqVWYaTDJfR-25" target="_oHKUjXF2xqVWYaTDJfR-20" edge="1">
          <mxGeometry relative="1" as="geometry" />
        </mxCell>
        <mxCell id="_oHKUjXF2xqVWYaTDJfR-24" value="FK_SALE_POINT_INCOTERMS" style="edgeLabel;html=1;align=center;verticalAlign=middle;resizable=0;points=[];" parent="_oHKUjXF2xqVWYaTDJfR-23" connectable="0" vertex="1">
          <mxGeometry x="-0.2238" y="2" relative="1" as="geometry">
            <mxPoint as="offset" />
          </mxGeometry>
        </mxCell>
        <mxCell id="_oHKUjXF2xqVWYaTDJfR-25" value="Sale_point" style="swimlane;fontStyle=1;align=center;verticalAlign=top;childLayout=stackLayout;horizontal=1;startSize=26;horizontalStack=0;resizeParent=1;resizeParentMax=0;resizeLast=0;collapsible=1;marginBottom=0;whiteSpace=wrap;html=1;" parent="1" vertex="1">
          <mxGeometry x="1607.5" y="-1067" width="222.5" height="104" as="geometry" />
        </mxCell>
        <mxCell id="_oHKUjXF2xqVWYaTDJfR-26" value="&lt;span style=&quot;white-space-collapse: preserve; background-color: rgb(255, 255, 255);&quot;&gt;&lt;u style=&quot;&quot;&gt;&lt;font style=&quot;font-size: 12px;&quot; face=&quot;Helvetica&quot;&gt;id_sale_point  INT  &amp;lt;pk&amp;gt;&lt;/font&gt;&lt;/u&gt;&lt;/span&gt;" style="text;strokeColor=none;fillColor=none;align=left;verticalAlign=top;spacingLeft=4;spacingRight=4;overflow=hidden;rotatable=0;points=[[0,0.5],[1,0.5]];portConstraint=eastwest;whiteSpace=wrap;html=1;" parent="_oHKUjXF2xqVWYaTDJfR-25" vertex="1">
          <mxGeometry y="26" width="222.5" height="26" as="geometry" />
        </mxCell>
        <mxCell id="_oHKUjXF2xqVWYaTDJfR-27" value="&lt;span style=&quot;white-space-collapse: preserve;&quot;&gt;sale_point_place  &lt;span style=&quot;text-wrap: nowrap;&quot;&gt;&#x9;&lt;/span&gt;INT              &amp;lt;fk1&amp;gt;&lt;/span&gt;" style="text;strokeColor=none;fillColor=none;align=left;verticalAlign=top;spacingLeft=4;spacingRight=4;overflow=hidden;rotatable=0;points=[[0,0.5],[1,0.5]];portConstraint=eastwest;whiteSpace=wrap;html=1;" parent="_oHKUjXF2xqVWYaTDJfR-25" vertex="1">
          <mxGeometry y="52" width="222.5" height="26" as="geometry" />
        </mxCell>
        <mxCell id="_oHKUjXF2xqVWYaTDJfR-28" value="&lt;span style=&quot;white-space-collapse: preserve;&quot;&gt;&lt;font style=&quot;&quot; face=&quot;Helvetica&quot;&gt;sale_point_incoterms     INT       &amp;lt;fk2&amp;gt;&lt;/font&gt;&lt;/span&gt;" style="text;strokeColor=none;fillColor=none;align=left;verticalAlign=top;spacingLeft=4;spacingRight=4;overflow=hidden;rotatable=0;points=[[0,0.5],[1,0.5]];portConstraint=eastwest;whiteSpace=wrap;html=1;" parent="_oHKUjXF2xqVWYaTDJfR-25" vertex="1">
          <mxGeometry y="78" width="222.5" height="26" as="geometry" />
        </mxCell>
        <mxCell id="_oHKUjXF2xqVWYaTDJfR-29" value="Sale_contract" style="swimlane;fontStyle=1;align=center;verticalAlign=top;childLayout=stackLayout;horizontal=1;startSize=26;horizontalStack=0;resizeParent=1;resizeParentMax=0;resizeLast=0;collapsible=1;marginBottom=0;whiteSpace=wrap;html=1;" parent="1" vertex="1">
          <mxGeometry x="1930" y="-1476" width="210" height="170" as="geometry" />
        </mxCell>
        <mxCell id="_oHKUjXF2xqVWYaTDJfR-30" value="&lt;span style=&quot;white-space-collapse: preserve; background-color: rgb(255, 255, 255);&quot;&gt;&lt;u style=&quot;&quot;&gt;&lt;font style=&quot;font-size: 12px;&quot; face=&quot;Helvetica&quot;&gt;id_sale_contract      INT        &amp;lt;pk&amp;gt;&lt;/font&gt;&lt;/u&gt;&lt;/span&gt;" style="text;strokeColor=none;fillColor=none;align=left;verticalAlign=top;spacingLeft=4;spacingRight=4;overflow=hidden;rotatable=0;points=[[0,0.5],[1,0.5]];portConstraint=eastwest;whiteSpace=wrap;html=1;" parent="_oHKUjXF2xqVWYaTDJfR-29" vertex="1">
          <mxGeometry y="26" width="210" height="18" as="geometry" />
        </mxCell>
        <mxCell id="_oHKUjXF2xqVWYaTDJfR-31" value="&lt;span style=&quot;white-space-collapse: preserve; background-color: rgb(255, 255, 255);&quot;&gt;&lt;font style=&quot;font-size: 12px;&quot;&gt;contract_number VARCHAR(30)&lt;/font&gt;&lt;/span&gt;" style="text;strokeColor=none;fillColor=none;align=left;verticalAlign=top;spacingLeft=4;spacingRight=4;overflow=hidden;rotatable=0;points=[[0,0.5],[1,0.5]];portConstraint=eastwest;whiteSpace=wrap;html=1;" parent="_oHKUjXF2xqVWYaTDJfR-29" vertex="1">
          <mxGeometry y="44" width="210" height="28" as="geometry" />
        </mxCell>
        <mxCell id="_oHKUjXF2xqVWYaTDJfR-32" value="&lt;font face=&quot;Helvetica&quot; style=&quot;font-size: 12px;&quot;&gt;&lt;span style=&quot;white-space-collapse: preserve; background-color: rgb(255, 255, 255);&quot;&gt;contract_date    TIMESTAMP&lt;/span&gt;&lt;/font&gt;" style="text;strokeColor=none;fillColor=none;align=left;verticalAlign=top;spacingLeft=4;spacingRight=4;overflow=hidden;rotatable=0;points=[[0,0.5],[1,0.5]];portConstraint=eastwest;whiteSpace=wrap;html=1;" parent="_oHKUjXF2xqVWYaTDJfR-29" vertex="1">
          <mxGeometry y="72" width="210" height="26" as="geometry" />
        </mxCell>
        <mxCell id="_oHKUjXF2xqVWYaTDJfR-33" value="&lt;span style=&quot;white-space-collapse: preserve;&quot;&gt;&lt;font style=&quot;&quot; face=&quot;Helvetica&quot;&gt;contract_customer       INT    &amp;lt; fk1&amp;gt;&lt;/font&gt;&lt;/span&gt;" style="text;strokeColor=none;fillColor=none;align=left;verticalAlign=top;spacingLeft=4;spacingRight=4;overflow=hidden;rotatable=0;points=[[0,0.5],[1,0.5]];portConstraint=eastwest;whiteSpace=wrap;html=1;" parent="_oHKUjXF2xqVWYaTDJfR-29" vertex="1">
          <mxGeometry y="98" width="210" height="26" as="geometry" />
        </mxCell>
        <mxCell id="_oHKUjXF2xqVWYaTDJfR-34" value="&lt;span style=&quot;white-space-collapse: preserve;&quot;&gt;&lt;font style=&quot;&quot; face=&quot;Helvetica&quot;&gt;contract_sale_point  INT        &amp;lt;fk2&amp;gt;&lt;/font&gt;&lt;/span&gt;" style="text;strokeColor=none;fillColor=none;align=left;verticalAlign=top;spacingLeft=4;spacingRight=4;overflow=hidden;rotatable=0;points=[[0,0.5],[1,0.5]];portConstraint=eastwest;whiteSpace=wrap;html=1;" parent="_oHKUjXF2xqVWYaTDJfR-29" vertex="1">
          <mxGeometry y="124" width="210" height="46" as="geometry" />
        </mxCell>
        <mxCell id="_oHKUjXF2xqVWYaTDJfR-35" style="edgeStyle=orthogonalEdgeStyle;rounded=0;orthogonalLoop=1;jettySize=auto;html=1;endArrow=none;endFill=0;startArrow=classic;startFill=1;startSize=16;" parent="1" source="_oHKUjXF2xqVWYaTDJfR-37" target="_oHKUjXF2xqVWYaTDJfR-85" edge="1">
          <mxGeometry relative="1" as="geometry" />
        </mxCell>
        <mxCell id="_oHKUjXF2xqVWYaTDJfR-36" value="FK_EXCHANGE_RATE_CURRENCY" style="edgeLabel;html=1;align=center;verticalAlign=middle;resizable=0;points=[];" parent="_oHKUjXF2xqVWYaTDJfR-35" connectable="0" vertex="1">
          <mxGeometry x="0.0999" relative="1" as="geometry">
            <mxPoint as="offset" />
          </mxGeometry>
        </mxCell>
        <mxCell id="_oHKUjXF2xqVWYaTDJfR-37" value="Currency" style="swimlane;fontStyle=1;align=center;verticalAlign=top;childLayout=stackLayout;horizontal=1;startSize=26;horizontalStack=0;resizeParent=1;resizeParentMax=0;resizeLast=0;collapsible=1;marginBottom=0;whiteSpace=wrap;html=1;" parent="1" vertex="1">
          <mxGeometry x="1957.5" y="-540" width="195" height="106" as="geometry" />
        </mxCell>
        <mxCell id="_oHKUjXF2xqVWYaTDJfR-38" value="&lt;span style=&quot;white-space-collapse: preserve; background-color: rgb(255, 255, 255);&quot;&gt;&lt;u style=&quot;&quot;&gt;&lt;font style=&quot;font-size: 12px;&quot;&gt;id_currency   INT        &amp;lt;pk&amp;gt;&lt;/font&gt;&lt;/u&gt;&lt;/span&gt;" style="text;strokeColor=none;fillColor=none;align=left;verticalAlign=top;spacingLeft=4;spacingRight=4;overflow=hidden;rotatable=0;points=[[0,0.5],[1,0.5]];portConstraint=eastwest;whiteSpace=wrap;html=1;" parent="_oHKUjXF2xqVWYaTDJfR-37" vertex="1">
          <mxGeometry y="26" width="195" height="26" as="geometry" />
        </mxCell>
        <mxCell id="_oHKUjXF2xqVWYaTDJfR-39" value="&lt;span style=&quot;white-space-collapse: preserve; background-color: rgb(255, 255, 255);&quot;&gt;&lt;font style=&quot;font-size: 12px;&quot;&gt;currency_name VARCHAR(50)&lt;/font&gt;&lt;/span&gt;" style="text;strokeColor=none;fillColor=none;align=left;verticalAlign=top;spacingLeft=4;spacingRight=4;overflow=hidden;rotatable=0;points=[[0,0.5],[1,0.5]];portConstraint=eastwest;whiteSpace=wrap;html=1;" parent="_oHKUjXF2xqVWYaTDJfR-37" vertex="1">
          <mxGeometry y="52" width="195" height="28" as="geometry" />
        </mxCell>
        <mxCell id="_oHKUjXF2xqVWYaTDJfR-40" value="&lt;span style=&quot;white-space-collapse: preserve; background-color: rgb(255, 255, 255);&quot;&gt;&lt;font face=&quot;Helvetica&quot; style=&quot;font-size: 12px;&quot;&gt;currency_code CHAR(3)&lt;/font&gt;&lt;/span&gt;" style="text;strokeColor=none;fillColor=none;align=left;verticalAlign=top;spacingLeft=4;spacingRight=4;overflow=hidden;rotatable=0;points=[[0,0.5],[1,0.5]];portConstraint=eastwest;whiteSpace=wrap;html=1;" parent="_oHKUjXF2xqVWYaTDJfR-37" vertex="1">
          <mxGeometry y="80" width="195" height="26" as="geometry" />
        </mxCell>
        <mxCell id="_oHKUjXF2xqVWYaTDJfR-41" style="edgeStyle=orthogonalEdgeStyle;rounded=0;orthogonalLoop=1;jettySize=auto;html=1;entryX=0.75;entryY=1;entryDx=0;entryDy=0;endArrow=classic;endFill=1;startArrow=none;startFill=0;strokeWidth=1;startSize=6;endSize=16;" parent="1" source="_oHKUjXF2xqVWYaTDJfR-47" target="_oHKUjXF2xqVWYaTDJfR-29" edge="1">
          <mxGeometry relative="1" as="geometry" />
        </mxCell>
        <mxCell id="_oHKUjXF2xqVWYaTDJfR-42" value="FK_SALE_INVOICE_SALE_CONTRACT&lt;div&gt;&lt;br&gt;&lt;/div&gt;" style="edgeLabel;html=1;align=center;verticalAlign=middle;resizable=0;points=[];" parent="_oHKUjXF2xqVWYaTDJfR-41" connectable="0" vertex="1">
          <mxGeometry x="-0.299" y="2" relative="1" as="geometry">
            <mxPoint x="87" y="-15" as="offset" />
          </mxGeometry>
        </mxCell>
        <mxCell id="_oHKUjXF2xqVWYaTDJfR-43" style="edgeStyle=orthogonalEdgeStyle;rounded=0;orthogonalLoop=1;jettySize=auto;html=1;endArrow=classic;endFill=1;startSize=16;startArrow=none;startFill=0;endSize=16;" parent="1" source="_oHKUjXF2xqVWYaTDJfR-47" target="_oHKUjXF2xqVWYaTDJfR-37" edge="1">
          <mxGeometry relative="1" as="geometry" />
        </mxCell>
        <mxCell id="_oHKUjXF2xqVWYaTDJfR-44" value="FK_SALE_INVOICE_CURRENCY" style="edgeLabel;html=1;align=center;verticalAlign=middle;resizable=0;points=[];" parent="_oHKUjXF2xqVWYaTDJfR-43" connectable="0" vertex="1">
          <mxGeometry x="-0.0681" y="-1" relative="1" as="geometry">
            <mxPoint as="offset" />
          </mxGeometry>
        </mxCell>
        <mxCell id="_oHKUjXF2xqVWYaTDJfR-45" style="edgeStyle=orthogonalEdgeStyle;rounded=0;orthogonalLoop=1;jettySize=auto;html=1;endArrow=none;endFill=0;startArrow=classic;startFill=1;startSize=16;" parent="1" source="_oHKUjXF2xqVWYaTDJfR-47" target="_oHKUjXF2xqVWYaTDJfR-73" edge="1">
          <mxGeometry relative="1" as="geometry" />
        </mxCell>
        <mxCell id="_oHKUjXF2xqVWYaTDJfR-46" value="FK_CONSIGNMENT_&lt;div&gt;SALE_INVOICE&lt;/div&gt;" style="edgeLabel;html=1;align=center;verticalAlign=middle;resizable=0;points=[];" parent="_oHKUjXF2xqVWYaTDJfR-45" connectable="0" vertex="1">
          <mxGeometry x="0.0617" y="1" relative="1" as="geometry">
            <mxPoint as="offset" />
          </mxGeometry>
        </mxCell>
        <mxCell id="_oHKUjXF2xqVWYaTDJfR-47" value="Sale_invoice" style="swimlane;fontStyle=1;align=center;verticalAlign=top;childLayout=stackLayout;horizontal=1;startSize=26;horizontalStack=0;resizeParent=1;resizeParentMax=0;resizeLast=0;collapsible=1;marginBottom=0;whiteSpace=wrap;html=1;" parent="1" vertex="1">
          <mxGeometry x="1935" y="-852" width="255" height="158" as="geometry" />
        </mxCell>
        <mxCell id="_oHKUjXF2xqVWYaTDJfR-48" value="&lt;span style=&quot;white-space-collapse: preserve; background-color: rgb(255, 255, 255);&quot;&gt;&lt;u style=&quot;&quot;&gt;&lt;font style=&quot;font-size: 12px;&quot; face=&quot;Helvetica&quot;&gt;id_sale_invoice    INT        &amp;lt;pk&amp;gt;&lt;/font&gt;&lt;/u&gt;&lt;/span&gt;" style="text;strokeColor=none;fillColor=none;align=left;verticalAlign=top;spacingLeft=4;spacingRight=4;overflow=hidden;rotatable=0;points=[[0,0.5],[1,0.5]];portConstraint=eastwest;whiteSpace=wrap;html=1;" parent="_oHKUjXF2xqVWYaTDJfR-47" vertex="1">
          <mxGeometry y="26" width="255" height="26" as="geometry" />
        </mxCell>
        <mxCell id="_oHKUjXF2xqVWYaTDJfR-49" value="&lt;span style=&quot;white-space-collapse: preserve; background-color: rgb(255, 255, 255);&quot;&gt;&lt;font face=&quot;Helvetica&quot; style=&quot;font-size: 12px;&quot;&gt;invoice_number VARCHAR(30)&lt;/font&gt;&lt;/span&gt;" style="text;strokeColor=none;fillColor=none;align=left;verticalAlign=top;spacingLeft=4;spacingRight=4;overflow=hidden;rotatable=0;points=[[0,0.5],[1,0.5]];portConstraint=eastwest;whiteSpace=wrap;html=1;" parent="_oHKUjXF2xqVWYaTDJfR-47" vertex="1">
          <mxGeometry y="52" width="255" height="28" as="geometry" />
        </mxCell>
        <mxCell id="_oHKUjXF2xqVWYaTDJfR-50" value="&lt;span style=&quot;white-space-collapse: preserve; background-color: rgb(255, 255, 255);&quot;&gt;&lt;font style=&quot;font-size: 12px;&quot; face=&quot;Helvetica&quot;&gt;invoice_date TIMESTAMP&lt;/font&gt;&lt;/span&gt;" style="text;strokeColor=none;fillColor=none;align=left;verticalAlign=top;spacingLeft=4;spacingRight=4;overflow=hidden;rotatable=0;points=[[0,0.5],[1,0.5]];portConstraint=eastwest;whiteSpace=wrap;html=1;" parent="_oHKUjXF2xqVWYaTDJfR-47" vertex="1">
          <mxGeometry y="80" width="255" height="26" as="geometry" />
        </mxCell>
        <mxCell id="_oHKUjXF2xqVWYaTDJfR-51" value="&lt;span style=&quot;white-space-collapse: preserve;&quot;&gt;&lt;font style=&quot;&quot; face=&quot;Helvetica&quot;&gt;invoice_contract         INT                     &amp;lt;fk1&amp;gt;&lt;/font&gt;&lt;/span&gt;" style="text;strokeColor=none;fillColor=none;align=left;verticalAlign=top;spacingLeft=4;spacingRight=4;overflow=hidden;rotatable=0;points=[[0,0.5],[1,0.5]];portConstraint=eastwest;whiteSpace=wrap;html=1;" parent="_oHKUjXF2xqVWYaTDJfR-47" vertex="1">
          <mxGeometry y="106" width="255" height="26" as="geometry" />
        </mxCell>
        <mxCell id="_oHKUjXF2xqVWYaTDJfR-52" value="&lt;span style=&quot;white-space-collapse: preserve;&quot;&gt;invoice_currency          INT                   &amp;lt;fk2&amp;gt;&lt;/span&gt;" style="text;strokeColor=none;fillColor=none;align=left;verticalAlign=top;spacingLeft=4;spacingRight=4;overflow=hidden;rotatable=0;points=[[0,0.5],[1,0.5]];portConstraint=eastwest;whiteSpace=wrap;html=1;" parent="_oHKUjXF2xqVWYaTDJfR-47" vertex="1">
          <mxGeometry y="132" width="255" height="26" as="geometry" />
        </mxCell>
        <mxCell id="_oHKUjXF2xqVWYaTDJfR-53" value="Mesure_unit" style="swimlane;fontStyle=1;align=center;verticalAlign=top;childLayout=stackLayout;horizontal=1;startSize=26;horizontalStack=0;resizeParent=1;resizeParentMax=0;resizeLast=0;collapsible=1;marginBottom=0;whiteSpace=wrap;html=1;" parent="1" vertex="1">
          <mxGeometry x="1461.25" y="-310" width="242.5" height="106" as="geometry" />
        </mxCell>
        <mxCell id="_oHKUjXF2xqVWYaTDJfR-54" value="&lt;span style=&quot;white-space-collapse: preserve; background-color: rgb(255, 255, 255);&quot;&gt;&lt;u style=&quot;&quot;&gt;&lt;font style=&quot;font-size: 12px;&quot; face=&quot;Helvetica&quot;&gt;id_measure_unit         INT                  &amp;lt;pk&amp;gt;&lt;/font&gt;&lt;/u&gt;&lt;/span&gt;" style="text;strokeColor=none;fillColor=none;align=left;verticalAlign=top;spacingLeft=4;spacingRight=4;overflow=hidden;rotatable=0;points=[[0,0.5],[1,0.5]];portConstraint=eastwest;whiteSpace=wrap;html=1;" parent="_oHKUjXF2xqVWYaTDJfR-53" vertex="1">
          <mxGeometry y="26" width="242.5" height="26" as="geometry" />
        </mxCell>
        <mxCell id="_oHKUjXF2xqVWYaTDJfR-55" value="&lt;span style=&quot;white-space-collapse: preserve; background-color: rgb(255, 255, 255);&quot;&gt;&lt;font face=&quot;Helvetica&quot; style=&quot;font-size: 12px;&quot;&gt;measure_unit_name VARCHAR(50)&lt;/font&gt;&lt;/span&gt;" style="text;strokeColor=none;fillColor=none;align=left;verticalAlign=top;spacingLeft=4;spacingRight=4;overflow=hidden;rotatable=0;points=[[0,0.5],[1,0.5]];portConstraint=eastwest;whiteSpace=wrap;html=1;" parent="_oHKUjXF2xqVWYaTDJfR-53" vertex="1">
          <mxGeometry y="52" width="242.5" height="28" as="geometry" />
        </mxCell>
        <mxCell id="_oHKUjXF2xqVWYaTDJfR-56" value="&lt;span style=&quot;white-space-collapse: preserve; background-color: rgb(255, 255, 255);&quot;&gt;&lt;font style=&quot;font-size: 12px;&quot; face=&quot;Helvetica&quot;&gt;measure_unit_short_name VARCHAR(4)&lt;/font&gt;&lt;/span&gt;" style="text;strokeColor=none;fillColor=none;align=left;verticalAlign=top;spacingLeft=4;spacingRight=4;overflow=hidden;rotatable=0;points=[[0,0.5],[1,0.5]];portConstraint=eastwest;whiteSpace=wrap;html=1;" parent="_oHKUjXF2xqVWYaTDJfR-53" vertex="1">
          <mxGeometry y="80" width="242.5" height="26" as="geometry" />
        </mxCell>
        <mxCell id="_oHKUjXF2xqVWYaTDJfR-57" value="&lt;span style=&quot;font-weight: 400; text-align: start; white-space-collapse: preserve; background-color: rgb(255, 255, 255);&quot;&gt;&lt;font style=&quot;font-size: 12px;&quot; face=&quot;Helvetica&quot;&gt;Nomenclature_group&lt;/font&gt;&lt;/span&gt;" style="swimlane;fontStyle=1;align=center;verticalAlign=top;childLayout=stackLayout;horizontal=1;startSize=26;horizontalStack=0;resizeParent=1;resizeParentMax=0;resizeLast=0;collapsible=1;marginBottom=0;whiteSpace=wrap;html=1;" parent="1" vertex="1">
          <mxGeometry x="910" y="-536" width="245" height="78" as="geometry" />
        </mxCell>
        <mxCell id="_oHKUjXF2xqVWYaTDJfR-58" value="&lt;span style=&quot;white-space-collapse: preserve; background-color: rgb(255, 255, 255);&quot;&gt;&lt;u style=&quot;&quot;&gt;&lt;font face=&quot;Helvetica&quot; style=&quot;font-size: 12px;&quot;&gt;id_nomenclature_group    INT    &amp;lt;pk&amp;gt;&lt;/font&gt;&lt;/u&gt;&lt;/span&gt;" style="text;strokeColor=none;fillColor=none;align=left;verticalAlign=top;spacingLeft=4;spacingRight=4;overflow=hidden;rotatable=0;points=[[0,0.5],[1,0.5]];portConstraint=eastwest;whiteSpace=wrap;html=1;" parent="_oHKUjXF2xqVWYaTDJfR-57" vertex="1">
          <mxGeometry y="26" width="245" height="26" as="geometry" />
        </mxCell>
        <mxCell id="_oHKUjXF2xqVWYaTDJfR-59" value="&lt;span style=&quot;white-space-collapse: preserve; background-color: rgb(255, 255, 255);&quot;&gt;&lt;font style=&quot;font-size: 12px;&quot;&gt;nomenclature_group_name VARCHAR(30)&lt;/font&gt;&lt;/span&gt;" style="text;strokeColor=none;fillColor=none;align=left;verticalAlign=top;spacingLeft=4;spacingRight=4;overflow=hidden;rotatable=0;points=[[0,0.5],[1,0.5]];portConstraint=eastwest;whiteSpace=wrap;html=1;" parent="_oHKUjXF2xqVWYaTDJfR-57" vertex="1">
          <mxGeometry y="52" width="245" height="26" as="geometry" />
        </mxCell>
        <mxCell id="_oHKUjXF2xqVWYaTDJfR-60" style="edgeStyle=orthogonalEdgeStyle;rounded=0;orthogonalLoop=1;jettySize=auto;html=1;entryX=1;entryY=0.5;entryDx=0;entryDy=0;endArrow=classic;endFill=1;startArrow=none;startFill=0;endSize=16;shadow=1;" parent="1" source="_oHKUjXF2xqVWYaTDJfR-64" target="_oHKUjXF2xqVWYaTDJfR-58" edge="1">
          <mxGeometry relative="1" as="geometry" />
        </mxCell>
        <mxCell id="_oHKUjXF2xqVWYaTDJfR-61" value="FK_NOMENCLATURE_NOMENCLATURE_GROUP" style="edgeLabel;html=1;align=center;verticalAlign=middle;resizable=0;points=[];" parent="_oHKUjXF2xqVWYaTDJfR-60" connectable="0" vertex="1">
          <mxGeometry x="0.0191" relative="1" as="geometry">
            <mxPoint as="offset" />
          </mxGeometry>
        </mxCell>
        <mxCell id="_oHKUjXF2xqVWYaTDJfR-62" style="edgeStyle=orthogonalEdgeStyle;rounded=0;orthogonalLoop=1;jettySize=auto;html=1;endArrow=classic;endFill=1;startSize=16;entryX=0.5;entryY=0;entryDx=0;entryDy=0;endSize=16;" parent="1" source="_oHKUjXF2xqVWYaTDJfR-64" target="_oHKUjXF2xqVWYaTDJfR-53" edge="1">
          <mxGeometry relative="1" as="geometry">
            <mxPoint x="1560" y="-375" as="targetPoint" />
          </mxGeometry>
        </mxCell>
        <mxCell id="_oHKUjXF2xqVWYaTDJfR-63" value="FK_NOMENCLATURE_MEASURE" style="edgeLabel;html=1;align=center;verticalAlign=middle;resizable=0;points=[];" parent="_oHKUjXF2xqVWYaTDJfR-62" connectable="0" vertex="1">
          <mxGeometry x="-0.099" relative="1" as="geometry">
            <mxPoint as="offset" />
          </mxGeometry>
        </mxCell>
        <mxCell id="_oHKUjXF2xqVWYaTDJfR-64" value="&lt;span style=&quot;font-weight: 400; text-align: start; white-space-collapse: preserve; background-color: rgb(255, 255, 255);&quot;&gt;&lt;font style=&quot;font-size: 12px;&quot; face=&quot;Helvetica&quot;&gt;Nomenclature&lt;/font&gt;&lt;/span&gt;" style="swimlane;fontStyle=1;align=center;verticalAlign=top;childLayout=stackLayout;horizontal=1;startSize=26;horizontalStack=0;resizeParent=1;resizeParentMax=0;resizeLast=0;collapsible=1;marginBottom=0;whiteSpace=wrap;html=1;" parent="1" vertex="1">
          <mxGeometry x="1462.5" y="-562" width="240" height="130" as="geometry" />
        </mxCell>
        <mxCell id="_oHKUjXF2xqVWYaTDJfR-65" value="&lt;span style=&quot;white-space-collapse: preserve; background-color: rgb(255, 255, 255);&quot;&gt;&lt;u style=&quot;&quot;&gt;&lt;font style=&quot;font-size: 12px;&quot; face=&quot;Helvetica&quot;&gt;id_nomenclature      INT          &amp;lt;pk&amp;gt;&lt;/font&gt;&lt;/u&gt;&lt;/span&gt;" style="text;strokeColor=none;fillColor=none;align=left;verticalAlign=top;spacingLeft=4;spacingRight=4;overflow=hidden;rotatable=0;points=[[0,0.5],[1,0.5]];portConstraint=eastwest;whiteSpace=wrap;html=1;" parent="_oHKUjXF2xqVWYaTDJfR-64" vertex="1">
          <mxGeometry y="26" width="240" height="26" as="geometry" />
        </mxCell>
        <mxCell id="_oHKUjXF2xqVWYaTDJfR-66" value="&lt;span style=&quot;white-space-collapse: preserve; background-color: rgb(255, 255, 255);&quot;&gt;&lt;font face=&quot;Helvetica&quot; style=&quot;font-size: 12px;&quot;&gt;nomenclature_name VARCHAR(100)&lt;/font&gt;&lt;/span&gt;" style="text;strokeColor=none;fillColor=none;align=left;verticalAlign=top;spacingLeft=4;spacingRight=4;overflow=hidden;rotatable=0;points=[[0,0.5],[1,0.5]];portConstraint=eastwest;whiteSpace=wrap;html=1;" parent="_oHKUjXF2xqVWYaTDJfR-64" vertex="1">
          <mxGeometry y="52" width="240" height="26" as="geometry" />
        </mxCell>
        <mxCell id="_oHKUjXF2xqVWYaTDJfR-67" value="&lt;span style=&quot;white-space-collapse: preserve; background-color: rgb(255, 255, 255);&quot;&gt;&lt;font face=&quot;Helvetica&quot; style=&quot;font-size: 12px;&quot;&gt;nomenclature_group_id  INT            &amp;lt;fk1&amp;gt;&lt;/font&gt;&lt;/span&gt;" style="text;strokeColor=none;fillColor=none;align=left;verticalAlign=top;spacingLeft=4;spacingRight=4;overflow=hidden;rotatable=0;points=[[0,0.5],[1,0.5]];portConstraint=eastwest;whiteSpace=wrap;html=1;" parent="_oHKUjXF2xqVWYaTDJfR-64" vertex="1">
          <mxGeometry y="78" width="240" height="26" as="geometry" />
        </mxCell>
        <mxCell id="_oHKUjXF2xqVWYaTDJfR-68" value="&lt;span style=&quot;white-space-collapse: preserve; background-color: rgb(255, 255, 255);&quot;&gt;&lt;font face=&quot;Helvetica&quot; style=&quot;font-size: 12px;&quot;&gt;nomenclature_measure_unite  INT  &amp;lt;fk2&amp;gt;&lt;/font&gt;&lt;/span&gt;" style="text;strokeColor=none;fillColor=none;align=left;verticalAlign=top;spacingLeft=4;spacingRight=4;overflow=hidden;rotatable=0;points=[[0,0.5],[1,0.5]];portConstraint=eastwest;whiteSpace=wrap;html=1;" parent="_oHKUjXF2xqVWYaTDJfR-64" vertex="1">
          <mxGeometry y="104" width="240" height="26" as="geometry" />
        </mxCell>
        <mxCell id="_oHKUjXF2xqVWYaTDJfR-69" style="edgeStyle=orthogonalEdgeStyle;rounded=0;orthogonalLoop=1;jettySize=auto;html=1;startArrow=classic;startFill=1;endArrow=none;endFill=0;endSize=10;startSize=16;" parent="1" source="_oHKUjXF2xqVWYaTDJfR-73" target="_oHKUjXF2xqVWYaTDJfR-79" edge="1">
          <mxGeometry relative="1" as="geometry" />
        </mxCell>
        <mxCell id="_oHKUjXF2xqVWYaTDJfR-70" value="FK_SHIPMENT_CONSIGNMENT" style="edgeLabel;html=1;align=center;verticalAlign=middle;resizable=0;points=[];" parent="_oHKUjXF2xqVWYaTDJfR-69" connectable="0" vertex="1">
          <mxGeometry x="0.0651" y="1" relative="1" as="geometry">
            <mxPoint as="offset" />
          </mxGeometry>
        </mxCell>
        <mxCell id="_oHKUjXF2xqVWYaTDJfR-71" style="edgeStyle=orthogonalEdgeStyle;rounded=0;orthogonalLoop=1;jettySize=auto;html=1;entryX=0.5;entryY=0;entryDx=0;entryDy=0;endArrow=classic;endFill=1;startArrow=none;startFill=0;startSize=16;endSize=16;" parent="1" source="_oHKUjXF2xqVWYaTDJfR-73" target="_oHKUjXF2xqVWYaTDJfR-64" edge="1">
          <mxGeometry relative="1" as="geometry" />
        </mxCell>
        <mxCell id="_oHKUjXF2xqVWYaTDJfR-72" value="FK_CONSIGNMENT_NOMENCLATURE" style="edgeLabel;html=1;align=center;verticalAlign=middle;resizable=0;points=[];" parent="_oHKUjXF2xqVWYaTDJfR-71" connectable="0" vertex="1">
          <mxGeometry x="-0.0243" y="1" relative="1" as="geometry">
            <mxPoint as="offset" />
          </mxGeometry>
        </mxCell>
        <mxCell id="_oHKUjXF2xqVWYaTDJfR-73" value="&lt;span style=&quot;text-align: start; white-space-collapse: preserve; background-color: rgb(255, 255, 255);&quot;&gt;&lt;font style=&quot;font-size: 12px;&quot; face=&quot;Helvetica&quot;&gt;Consignment&lt;/font&gt;&lt;/span&gt;" style="swimlane;fontStyle=1;align=center;verticalAlign=top;childLayout=stackLayout;horizontal=1;startSize=26;horizontalStack=0;resizeParent=1;resizeParentMax=0;resizeLast=0;collapsible=1;marginBottom=0;whiteSpace=wrap;html=1;" parent="1" vertex="1">
          <mxGeometry x="1465" y="-860" width="265" height="160" as="geometry" />
        </mxCell>
        <mxCell id="_oHKUjXF2xqVWYaTDJfR-74" value="&lt;span style=&quot;white-space-collapse: preserve; background-color: rgb(255, 255, 255);&quot;&gt;&lt;u style=&quot;&quot;&gt;&lt;font style=&quot;font-size: 12px;&quot; face=&quot;Helvetica&quot;&gt;id_consignment        INT       &amp;lt;pk&amp;gt;&lt;/font&gt;&lt;/u&gt;&lt;/span&gt;" style="text;strokeColor=none;fillColor=none;align=left;verticalAlign=top;spacingLeft=4;spacingRight=4;overflow=hidden;rotatable=0;points=[[0,0.5],[1,0.5]];portConstraint=eastwest;whiteSpace=wrap;html=1;" parent="_oHKUjXF2xqVWYaTDJfR-73" vertex="1">
          <mxGeometry y="26" width="265" height="26" as="geometry" />
        </mxCell>
        <mxCell id="_oHKUjXF2xqVWYaTDJfR-75" value="&lt;span style=&quot;white-space-collapse: preserve; background-color: rgb(255, 255, 255);&quot;&gt;&lt;font style=&quot;font-size: 12px;&quot;&gt;consignment_quantity   DECIMAL(12,3)&lt;/font&gt;&lt;/span&gt;" style="text;strokeColor=none;fillColor=none;align=left;verticalAlign=top;spacingLeft=4;spacingRight=4;overflow=hidden;rotatable=0;points=[[0,0.5],[1,0.5]];portConstraint=eastwest;whiteSpace=wrap;html=1;" parent="_oHKUjXF2xqVWYaTDJfR-73" vertex="1">
          <mxGeometry y="52" width="265" height="28" as="geometry" />
        </mxCell>
        <mxCell id="_oHKUjXF2xqVWYaTDJfR-76" value="&lt;span style=&quot;white-space-collapse: preserve; background-color: rgb(255, 255, 255);&quot;&gt;&lt;font style=&quot;font-size: 12px;&quot; face=&quot;Helvetica&quot;&gt;consignment_price DECIMAL(9,2)&lt;/font&gt;&lt;/span&gt;" style="text;strokeColor=none;fillColor=none;align=left;verticalAlign=top;spacingLeft=4;spacingRight=4;overflow=hidden;rotatable=0;points=[[0,0.5],[1,0.5]];portConstraint=eastwest;whiteSpace=wrap;html=1;" parent="_oHKUjXF2xqVWYaTDJfR-73" vertex="1">
          <mxGeometry y="80" width="265" height="26" as="geometry" />
        </mxCell>
        <mxCell id="_oHKUjXF2xqVWYaTDJfR-77" value="&lt;span style=&quot;white-space-collapse: preserve; background-color: rgb(255, 255, 255);&quot;&gt;&lt;font style=&quot;font-size: 12px;&quot; face=&quot;Helvetica&quot;&gt;consignment_sale_invoice        INT       &amp;lt;fk1&amp;gt;&lt;/font&gt;&lt;/span&gt;" style="text;strokeColor=none;fillColor=none;align=left;verticalAlign=top;spacingLeft=4;spacingRight=4;overflow=hidden;rotatable=0;points=[[0,0.5],[1,0.5]];portConstraint=eastwest;whiteSpace=wrap;html=1;" parent="_oHKUjXF2xqVWYaTDJfR-73" vertex="1">
          <mxGeometry y="106" width="265" height="26" as="geometry" />
        </mxCell>
        <mxCell id="_oHKUjXF2xqVWYaTDJfR-78" value="&lt;span style=&quot;white-space-collapse: preserve; background-color: rgb(255, 255, 255);&quot;&gt;&lt;font style=&quot;font-size: 12px;&quot;&gt;consignement_nomenclature  INT         &amp;lt;fk2&amp;gt;&lt;/font&gt;&lt;/span&gt;" style="text;strokeColor=none;fillColor=none;align=left;verticalAlign=top;spacingLeft=4;spacingRight=4;overflow=hidden;rotatable=0;points=[[0,0.5],[1,0.5]];portConstraint=eastwest;whiteSpace=wrap;html=1;" parent="_oHKUjXF2xqVWYaTDJfR-73" vertex="1">
          <mxGeometry y="132" width="265" height="28" as="geometry" />
        </mxCell>
        <mxCell id="_oHKUjXF2xqVWYaTDJfR-79" value="&lt;div style=&quot;text-align: start;&quot;&gt;&lt;span style=&quot;font-weight: 400; white-space-collapse: preserve; background-color: rgb(255, 255, 255);&quot;&gt;&lt;font style=&quot;font-size: 12px;&quot;&gt;Shipment&lt;/font&gt;&lt;/span&gt;&lt;/div&gt;" style="swimlane;fontStyle=1;align=center;verticalAlign=top;childLayout=stackLayout;horizontal=1;startSize=26;horizontalStack=0;resizeParent=1;resizeParentMax=0;resizeLast=0;collapsible=1;marginBottom=0;whiteSpace=wrap;html=1;" parent="1" vertex="1">
          <mxGeometry x="927.5" y="-814" width="200" height="104" as="geometry" />
        </mxCell>
        <mxCell id="_oHKUjXF2xqVWYaTDJfR-80" value="&lt;span style=&quot;white-space-collapse: preserve; background-color: rgb(255, 255, 255);&quot;&gt;&lt;u style=&quot;&quot;&gt;&lt;font style=&quot;font-size: 12px;&quot; face=&quot;Helvetica&quot;&gt;id_shipment     INT               &amp;lt;pk&amp;gt;&lt;/font&gt;&lt;/u&gt;&lt;/span&gt;" style="text;strokeColor=none;fillColor=none;align=left;verticalAlign=top;spacingLeft=4;spacingRight=4;overflow=hidden;rotatable=0;points=[[0,0.5],[1,0.5]];portConstraint=eastwest;whiteSpace=wrap;html=1;" parent="_oHKUjXF2xqVWYaTDJfR-79" vertex="1">
          <mxGeometry y="26" width="200" height="26" as="geometry" />
        </mxCell>
        <mxCell id="_oHKUjXF2xqVWYaTDJfR-81" value="&lt;span style=&quot;white-space-collapse: preserve; background-color: rgb(255, 255, 255);&quot;&gt;&lt;font style=&quot;font-size: 12px;&quot; face=&quot;Helvetica&quot;&gt;shipment_date   TIMESTAMP&lt;/font&gt;&lt;/span&gt;" style="text;strokeColor=none;fillColor=none;align=left;verticalAlign=top;spacingLeft=4;spacingRight=4;overflow=hidden;rotatable=0;points=[[0,0.5],[1,0.5]];portConstraint=eastwest;whiteSpace=wrap;html=1;" parent="_oHKUjXF2xqVWYaTDJfR-79" vertex="1">
          <mxGeometry y="52" width="200" height="26" as="geometry" />
        </mxCell>
        <mxCell id="_oHKUjXF2xqVWYaTDJfR-82" value="&lt;span style=&quot;white-space-collapse: preserve; background-color: rgb(255, 255, 255);&quot;&gt;&lt;font style=&quot;font-size: 12px;&quot; face=&quot;Helvetica&quot;&gt;id_consignment     INT         &amp;lt;fk&amp;gt;&lt;/font&gt;&lt;/span&gt;" style="text;strokeColor=none;fillColor=none;align=left;verticalAlign=top;spacingLeft=4;spacingRight=4;overflow=hidden;rotatable=0;points=[[0,0.5],[1,0.5]];portConstraint=eastwest;whiteSpace=wrap;html=1;" parent="_oHKUjXF2xqVWYaTDJfR-79" vertex="1">
          <mxGeometry y="78" width="200" height="26" as="geometry" />
        </mxCell>
        <mxCell id="_oHKUjXF2xqVWYaTDJfR-83" style="edgeStyle=orthogonalEdgeStyle;rounded=0;orthogonalLoop=1;jettySize=auto;html=1;endArrow=none;endFill=0;startArrow=classic;startFill=1;startSize=16;" parent="1" source="_oHKUjXF2xqVWYaTDJfR-5" target="_oHKUjXF2xqVWYaTDJfR-8" edge="1">
          <mxGeometry relative="1" as="geometry" />
        </mxCell>
        <mxCell id="_oHKUjXF2xqVWYaTDJfR-84" style="edgeStyle=orthogonalEdgeStyle;rounded=0;orthogonalLoop=1;jettySize=auto;html=1;entryX=0;entryY=0.5;entryDx=0;entryDy=0;endArrow=none;endFill=0;exitX=1;exitY=0.5;exitDx=0;exitDy=0;startArrow=classic;startFill=1;startSize=16;" parent="1" source="_oHKUjXF2xqVWYaTDJfR-15" target="_oHKUjXF2xqVWYaTDJfR-25" edge="1">
          <mxGeometry relative="1" as="geometry" />
        </mxCell>
        <mxCell id="_oHKUjXF2xqVWYaTDJfR-85" value="Exchange_rate" style="swimlane;fontStyle=1;align=center;verticalAlign=top;childLayout=stackLayout;horizontal=1;startSize=26;horizontalStack=0;resizeParent=1;resizeParentMax=0;resizeLast=0;collapsible=1;marginBottom=0;whiteSpace=wrap;html=1;" parent="1" vertex="1">
          <mxGeometry x="1940" y="-310" width="230" height="130" as="geometry" />
        </mxCell>
        <mxCell id="_oHKUjXF2xqVWYaTDJfR-86" value="&lt;u&gt;id_exchange_rate&amp;nbsp; &amp;nbsp;INT&amp;nbsp; &amp;nbsp; &amp;nbsp; &amp;lt;pk&amp;gt;&lt;/u&gt;" style="text;strokeColor=none;fillColor=none;align=left;verticalAlign=top;spacingLeft=4;spacingRight=4;overflow=hidden;rotatable=0;points=[[0,0.5],[1,0.5]];portConstraint=eastwest;whiteSpace=wrap;html=1;" parent="_oHKUjXF2xqVWYaTDJfR-85" vertex="1">
          <mxGeometry y="26" width="230" height="26" as="geometry" />
        </mxCell>
        <mxCell id="_oHKUjXF2xqVWYaTDJfR-87" value="exchange_rate_date TIMESTAMP&amp;nbsp;" style="text;strokeColor=none;fillColor=none;align=left;verticalAlign=top;spacingLeft=4;spacingRight=4;overflow=hidden;rotatable=0;points=[[0,0.5],[1,0.5]];portConstraint=eastwest;whiteSpace=wrap;html=1;" parent="_oHKUjXF2xqVWYaTDJfR-85" vertex="1">
          <mxGeometry y="52" width="230" height="26" as="geometry" />
        </mxCell>
        <mxCell id="_oHKUjXF2xqVWYaTDJfR-88" value="exchange_rate_value DECIMAL(10,5)" style="text;strokeColor=none;fillColor=none;align=left;verticalAlign=top;spacingLeft=4;spacingRight=4;overflow=hidden;rotatable=0;points=[[0,0.5],[1,0.5]];portConstraint=eastwest;whiteSpace=wrap;html=1;" parent="_oHKUjXF2xqVWYaTDJfR-85" vertex="1">
          <mxGeometry y="78" width="230" height="26" as="geometry" />
        </mxCell>
        <mxCell id="_oHKUjXF2xqVWYaTDJfR-89" value="exchange_rate_currency&amp;nbsp; &amp;nbsp;INT&amp;nbsp; &amp;nbsp; &amp;nbsp; &amp;nbsp;&amp;lt;fk&amp;gt;" style="text;strokeColor=none;fillColor=none;align=left;verticalAlign=top;spacingLeft=4;spacingRight=4;overflow=hidden;rotatable=0;points=[[0,0.5],[1,0.5]];portConstraint=eastwest;whiteSpace=wrap;html=1;" parent="_oHKUjXF2xqVWYaTDJfR-85" vertex="1">
          <mxGeometry y="104" width="230" height="26" as="geometry" />
        </mxCell>
        <mxCell id="_oHKUjXF2xqVWYaTDJfR-90" style="edgeStyle=orthogonalEdgeStyle;rounded=0;orthogonalLoop=1;jettySize=auto;html=1;endArrow=none;endFill=0;startArrow=classic;startFill=1;startSize=16;" parent="1" source="_oHKUjXF2xqVWYaTDJfR-91" target="_oHKUjXF2xqVWYaTDJfR-97" edge="1">
          <mxGeometry relative="1" as="geometry" />
        </mxCell>
        <mxCell id="_oHKUjXF2xqVWYaTDJfR-91" value="Bank" style="swimlane;fontStyle=1;align=center;verticalAlign=top;childLayout=stackLayout;horizontal=1;startSize=26;horizontalStack=0;resizeParent=1;resizeParentMax=0;resizeLast=0;collapsible=1;marginBottom=0;whiteSpace=wrap;html=1;" parent="1" vertex="1">
          <mxGeometry x="947.5" y="-1664" width="185" height="130" as="geometry" />
        </mxCell>
        <mxCell id="_oHKUjXF2xqVWYaTDJfR-92" value="&lt;u&gt;id_bank&amp;nbsp; &amp;nbsp; INT&amp;nbsp; &amp;nbsp; &amp;nbsp; &amp;nbsp; &amp;nbsp; &amp;nbsp; &amp;nbsp; &amp;nbsp; &amp;nbsp;&amp;lt;pk&amp;gt;&lt;/u&gt;" style="text;strokeColor=none;fillColor=none;align=left;verticalAlign=top;spacingLeft=4;spacingRight=4;overflow=hidden;rotatable=0;points=[[0,0.5],[1,0.5]];portConstraint=eastwest;whiteSpace=wrap;html=1;" parent="_oHKUjXF2xqVWYaTDJfR-91" vertex="1">
          <mxGeometry y="26" width="185" height="26" as="geometry" />
        </mxCell>
        <mxCell id="_oHKUjXF2xqVWYaTDJfR-93" value="bank_name VARCHAR(50)" style="text;strokeColor=none;fillColor=none;align=left;verticalAlign=top;spacingLeft=4;spacingRight=4;overflow=hidden;rotatable=0;points=[[0,0.5],[1,0.5]];portConstraint=eastwest;whiteSpace=wrap;html=1;" parent="_oHKUjXF2xqVWYaTDJfR-91" vertex="1">
          <mxGeometry y="52" width="185" height="26" as="geometry" />
        </mxCell>
        <mxCell id="_oHKUjXF2xqVWYaTDJfR-94" value="bank_address VARCHAR(250)" style="text;strokeColor=none;fillColor=none;align=left;verticalAlign=top;spacingLeft=4;spacingRight=4;overflow=hidden;rotatable=0;points=[[0,0.5],[1,0.5]];portConstraint=eastwest;whiteSpace=wrap;html=1;" parent="_oHKUjXF2xqVWYaTDJfR-91" vertex="1">
          <mxGeometry y="78" width="185" height="26" as="geometry" />
        </mxCell>
        <mxCell id="_oHKUjXF2xqVWYaTDJfR-95" value="&lt;span style=&quot;white-space-collapse: preserve;&quot;&gt;bank_country   INT              &amp;lt;fk&amp;gt;&lt;/span&gt;" style="text;strokeColor=none;fillColor=none;align=left;verticalAlign=top;spacingLeft=4;spacingRight=4;overflow=hidden;rotatable=0;points=[[0,0.5],[1,0.5]];portConstraint=eastwest;whiteSpace=wrap;html=1;" parent="_oHKUjXF2xqVWYaTDJfR-91" vertex="1">
          <mxGeometry y="104" width="185" height="26" as="geometry" />
        </mxCell>
        <mxCell id="_oHKUjXF2xqVWYaTDJfR-96" style="edgeStyle=orthogonalEdgeStyle;rounded=0;orthogonalLoop=1;jettySize=auto;html=1;endArrow=none;endFill=0;startArrow=classic;startFill=1;endSize=16;startSize=16;" parent="1" source="_oHKUjXF2xqVWYaTDJfR-97" target="_oHKUjXF2xqVWYaTDJfR-104" edge="1">
          <mxGeometry relative="1" as="geometry" />
        </mxCell>
        <mxCell id="_oHKUjXF2xqVWYaTDJfR-97" value="Bank_account" style="swimlane;fontStyle=1;align=center;verticalAlign=top;childLayout=stackLayout;horizontal=1;startSize=26;horizontalStack=0;resizeParent=1;resizeParentMax=0;resizeLast=0;collapsible=1;marginBottom=0;whiteSpace=wrap;html=1;" parent="1" vertex="1">
          <mxGeometry x="2437.5" y="-1650" width="235" height="130" as="geometry" />
        </mxCell>
        <mxCell id="_oHKUjXF2xqVWYaTDJfR-98" value="&lt;u&gt;id_bank_account&amp;nbsp; &amp;nbsp; &amp;nbsp;INT&amp;nbsp; &amp;lt;pk&amp;gt;&lt;/u&gt;" style="text;strokeColor=none;fillColor=none;align=left;verticalAlign=top;spacingLeft=4;spacingRight=4;overflow=hidden;rotatable=0;points=[[0,0.5],[1,0.5]];portConstraint=eastwest;whiteSpace=wrap;html=1;" parent="_oHKUjXF2xqVWYaTDJfR-97" vertex="1">
          <mxGeometry y="26" width="235" height="26" as="geometry" />
        </mxCell>
        <mxCell id="_oHKUjXF2xqVWYaTDJfR-99" value="bank_account_number&amp;nbsp; &amp;nbsp; VARCHAR(50)" style="text;strokeColor=none;fillColor=none;align=left;verticalAlign=top;spacingLeft=4;spacingRight=4;overflow=hidden;rotatable=0;points=[[0,0.5],[1,0.5]];portConstraint=eastwest;whiteSpace=wrap;html=1;" parent="_oHKUjXF2xqVWYaTDJfR-97" vertex="1">
          <mxGeometry y="52" width="235" height="26" as="geometry" />
        </mxCell>
        <mxCell id="_oHKUjXF2xqVWYaTDJfR-100" value="bank_account_bank&amp;nbsp; &amp;nbsp; INT&amp;nbsp; &amp;nbsp; &amp;nbsp; &amp;nbsp; &amp;nbsp; &amp;nbsp; &amp;nbsp; &amp;nbsp; &amp;nbsp;&amp;lt;fk&amp;gt;" style="text;strokeColor=none;fillColor=none;align=left;verticalAlign=top;spacingLeft=4;spacingRight=4;overflow=hidden;rotatable=0;points=[[0,0.5],[1,0.5]];portConstraint=eastwest;whiteSpace=wrap;html=1;" parent="_oHKUjXF2xqVWYaTDJfR-97" vertex="1">
          <mxGeometry y="78" width="235" height="26" as="geometry" />
        </mxCell>
        <mxCell id="_oHKUjXF2xqVWYaTDJfR-101" value="bank_account_currency&amp;nbsp; INT&amp;nbsp; &amp;nbsp; &amp;nbsp; &amp;nbsp; &amp;nbsp; &amp;nbsp; &amp;nbsp;&amp;lt;fk&amp;gt;" style="text;strokeColor=none;fillColor=none;align=left;verticalAlign=top;spacingLeft=4;spacingRight=4;overflow=hidden;rotatable=0;points=[[0,0.5],[1,0.5]];portConstraint=eastwest;whiteSpace=wrap;html=1;" parent="_oHKUjXF2xqVWYaTDJfR-97" vertex="1">
          <mxGeometry y="104" width="235" height="26" as="geometry" />
        </mxCell>
        <mxCell id="_oHKUjXF2xqVWYaTDJfR-102" style="edgeStyle=orthogonalEdgeStyle;rounded=0;orthogonalLoop=1;jettySize=auto;html=1;endArrow=classic;endFill=1;startArrow=none;startFill=0;endSize=16;startSize=16;" parent="1" source="_oHKUjXF2xqVWYaTDJfR-104" target="_oHKUjXF2xqVWYaTDJfR-47" edge="1">
          <mxGeometry relative="1" as="geometry" />
        </mxCell>
        <mxCell id="_oHKUjXF2xqVWYaTDJfR-103" value="FK_INCOMING_PAYMENT_SALE_INVOICE" style="edgeLabel;html=1;align=center;verticalAlign=middle;resizable=0;points=[];" parent="_oHKUjXF2xqVWYaTDJfR-102" connectable="0" vertex="1">
          <mxGeometry x="-0.1407" y="-3" relative="1" as="geometry">
            <mxPoint x="-9" y="-13" as="offset" />
          </mxGeometry>
        </mxCell>
        <mxCell id="_oHKUjXF2xqVWYaTDJfR-104" value="&lt;span style=&quot;text-wrap: nowrap;&quot;&gt;Incoming_payment&lt;/span&gt;" style="swimlane;fontStyle=1;align=center;verticalAlign=top;childLayout=stackLayout;horizontal=1;startSize=26;horizontalStack=0;resizeParent=1;resizeParentMax=0;resizeLast=0;collapsible=1;marginBottom=0;whiteSpace=wrap;html=1;" parent="1" vertex="1">
          <mxGeometry x="2430" y="-850" width="340" height="156" as="geometry" />
        </mxCell>
        <mxCell id="_oHKUjXF2xqVWYaTDJfR-105" value="&lt;div style=&quot;text-align: center;&quot;&gt;&lt;span style=&quot;background-color: initial;&quot;&gt;&lt;u&gt;id_incoming_payment&amp;nbsp; &amp;nbsp; &amp;nbsp;INT&amp;nbsp; &amp;nbsp; &amp;nbsp; &amp;nbsp; &amp;nbsp; &amp;lt;pk&amp;gt;&lt;/u&gt;&lt;/span&gt;&lt;/div&gt;" style="text;strokeColor=none;fillColor=none;align=left;verticalAlign=top;spacingLeft=4;spacingRight=4;overflow=hidden;rotatable=0;points=[[0,0.5],[1,0.5]];portConstraint=eastwest;whiteSpace=wrap;html=1;" parent="_oHKUjXF2xqVWYaTDJfR-104" vertex="1">
          <mxGeometry y="26" width="340" height="26" as="geometry" />
        </mxCell>
        <mxCell id="_oHKUjXF2xqVWYaTDJfR-106" value="&lt;div style=&quot;&quot;&gt;&lt;span style=&quot;white-space-collapse: preserve;&quot;&gt;&lt;font style=&quot;&quot; face=&quot;Helvetica&quot;&gt;incoming_payment_date TIMESTAMP  &lt;/font&gt;&lt;/span&gt;&lt;br&gt;&lt;/div&gt;" style="text;strokeColor=none;fillColor=none;align=left;verticalAlign=top;spacingLeft=4;spacingRight=4;overflow=hidden;rotatable=0;points=[[0,0.5],[1,0.5]];portConstraint=eastwest;whiteSpace=wrap;html=1;" parent="_oHKUjXF2xqVWYaTDJfR-104" vertex="1">
          <mxGeometry y="52" width="340" height="26" as="geometry" />
        </mxCell>
        <mxCell id="_oHKUjXF2xqVWYaTDJfR-107" value="&lt;div style=&quot;&quot;&gt;&lt;span style=&quot;white-space-collapse: preserve;&quot;&gt;&lt;font style=&quot;&quot; face=&quot;Helvetica&quot;&gt;incoming_payment_amount DECIMAL(15,2)  &lt;/font&gt;&lt;/span&gt;&lt;br&gt;&lt;/div&gt;" style="text;strokeColor=none;fillColor=none;align=left;verticalAlign=top;spacingLeft=4;spacingRight=4;overflow=hidden;rotatable=0;points=[[0,0.5],[1,0.5]];portConstraint=eastwest;whiteSpace=wrap;html=1;" parent="_oHKUjXF2xqVWYaTDJfR-104" vertex="1">
          <mxGeometry y="78" width="340" height="26" as="geometry" />
        </mxCell>
        <mxCell id="_oHKUjXF2xqVWYaTDJfR-108" value="&lt;div style=&quot;&quot;&gt;&lt;span style=&quot;white-space-collapse: preserve;&quot;&gt;&lt;font style=&quot;&quot; face=&quot;Helvetica&quot;&gt;incoming_payment_sale_invoice    INT                      &amp;lt;fk1&amp;gt;&lt;/font&gt;&lt;/span&gt;&lt;br&gt;&lt;/div&gt;" style="text;strokeColor=none;fillColor=none;align=left;verticalAlign=top;spacingLeft=4;spacingRight=4;overflow=hidden;rotatable=0;points=[[0,0.5],[1,0.5]];portConstraint=eastwest;whiteSpace=wrap;html=1;" parent="_oHKUjXF2xqVWYaTDJfR-104" vertex="1">
          <mxGeometry y="104" width="340" height="26" as="geometry" />
        </mxCell>
        <mxCell id="_oHKUjXF2xqVWYaTDJfR-109" value="&lt;div style=&quot;text-align: center;&quot;&gt;&lt;span style=&quot;text-align: left;&quot;&gt;incoming_payment_bank_account&amp;nbsp; &amp;nbsp; &amp;nbsp;INT&amp;nbsp; &amp;nbsp; &amp;nbsp; &amp;nbsp; &amp;nbsp; &amp;nbsp; &amp;nbsp; &amp;nbsp; &amp;nbsp; &amp;nbsp;&amp;lt; fk2&amp;gt;&lt;/span&gt;&lt;br&gt;&lt;/div&gt;" style="text;strokeColor=none;fillColor=none;align=left;verticalAlign=top;spacingLeft=4;spacingRight=4;overflow=hidden;rotatable=0;points=[[0,0.5],[1,0.5]];portConstraint=eastwest;whiteSpace=wrap;html=1;" parent="_oHKUjXF2xqVWYaTDJfR-104" vertex="1">
          <mxGeometry y="130" width="340" height="26" as="geometry" />
        </mxCell>
        <mxCell id="_oHKUjXF2xqVWYaTDJfR-110" value="FK_CUSTOMER_COUNTRY" style="text;html=1;align=center;verticalAlign=middle;resizable=0;points=[];autosize=1;strokeColor=none;fillColor=none;" parent="1" vertex="1">
          <mxGeometry x="1170" y="-1392" width="180" height="30" as="geometry" />
        </mxCell>
        <mxCell id="_oHKUjXF2xqVWYaTDJfR-111" value="FK_BANK_COUNTRY" style="text;html=1;align=center;verticalAlign=middle;resizable=0;points=[];autosize=1;strokeColor=none;fillColor=none;" parent="1" vertex="1">
          <mxGeometry x="1005" y="-1500" width="140" height="30" as="geometry" />
        </mxCell>
        <mxCell id="_oHKUjXF2xqVWYaTDJfR-112" value="FK_PLACE_COUNTRY" style="text;html=1;align=center;verticalAlign=middle;resizable=0;points=[];autosize=1;strokeColor=none;fillColor=none;" parent="1" vertex="1">
          <mxGeometry x="1005" y="-1240" width="150" height="30" as="geometry" />
        </mxCell>
        <mxCell id="_oHKUjXF2xqVWYaTDJfR-113" value="FK_BANK_ACCOUNT_BANK" style="text;html=1;align=center;verticalAlign=middle;resizable=0;points=[];autosize=1;strokeColor=none;fillColor=none;" parent="1" vertex="1">
          <mxGeometry x="1640" y="-1636" width="180" height="30" as="geometry" />
        </mxCell>
        <mxCell id="_oHKUjXF2xqVWYaTDJfR-114" value="FK_SALE_POINT_PLACE" style="text;html=1;align=center;verticalAlign=middle;resizable=0;points=[];autosize=1;strokeColor=none;fillColor=none;" parent="1" vertex="1">
          <mxGeometry x="1200" y="-1050" width="170" height="30" as="geometry" />
        </mxCell>
        <mxCell id="_oHKUjXF2xqVWYaTDJfR-115" value="&lt;font style=&quot;font-size: 11px;&quot;&gt;FK_INCOMING_PAYMENT_BANK_ACCOUNT&lt;/font&gt;" style="text;html=1;align=center;verticalAlign=middle;resizable=0;points=[];autosize=1;strokeColor=none;fillColor=none;" parent="1" vertex="1">
          <mxGeometry x="2430" y="-1196" width="250" height="30" as="geometry" />
        </mxCell>
        <mxCell id="_oHKUjXF2xqVWYaTDJfR-116" value="FK_SALE_CONTRACT_CUSTOMER" style="text;html=1;align=center;verticalAlign=middle;resizable=0;points=[];autosize=1;strokeColor=none;fillColor=none;" parent="1" vertex="1">
          <mxGeometry x="1670" y="-1392" width="220" height="30" as="geometry" />
        </mxCell>
        <mxCell id="_oHKUjXF2xqVWYaTDJfR-117" style="edgeStyle=orthogonalEdgeStyle;rounded=0;orthogonalLoop=1;jettySize=auto;html=1;exitX=1;exitY=0.5;exitDx=0;exitDy=0;entryX=1;entryY=0.5;entryDx=0;entryDy=0;endSize=14;" parent="1" source="_oHKUjXF2xqVWYaTDJfR-99" target="_oHKUjXF2xqVWYaTDJfR-39" edge="1">
          <mxGeometry relative="1" as="geometry">
            <Array as="points">
              <mxPoint x="2820" y="-1585" />
              <mxPoint x="2820" y="-474" />
            </Array>
          </mxGeometry>
        </mxCell>
        <mxCell id="_oHKUjXF2xqVWYaTDJfR-118" value="FK_BANK_ACCOUNT_CURRENCY" style="edgeLabel;html=1;align=center;verticalAlign=middle;resizable=0;points=[];" parent="_oHKUjXF2xqVWYaTDJfR-117" connectable="0" vertex="1">
          <mxGeometry x="-0.4111" y="1" relative="1" as="geometry">
            <mxPoint y="-67" as="offset" />
          </mxGeometry>
        </mxCell>
      </root>
    </mxGraphModel>
  </diagram>
</mxfile>
